<?xml version="1.0" encoding="utf-8"?>
<!-- Generator: Adobe Illustrator 19.0.0, SVG Export Plug-In . SVG Version: 6.00 Build 0)  -->
<svg version="1.1" id="Layer_1" xmlns="http://www.w3.org/2000/svg" xmlns:xlink="http://www.w3.org/1999/xlink" x="0px" y="0px"
	 viewBox="-127 267.7 356.4 259.3" style="enable-background:new -127 267.7 356.4 259.3;" xml:space="preserve">
<g>
	<path d="M227.3,488.8c2.7-2,2.4-9.2,1.5-14.1c-1.5-7.3-14.5-30.1-14.5-30.1H155h-0.7c0.1,0.1,0.2,0.3,0.3,0.4
		c0.5,0.5,0.9,1,1.4,1.5c-2.7,4.4-6.7,9.1-12.5,12.2c0,0-11.6-0.4-15,6c-0.6,1.1-0.9,2.3-1,3.8c0,0,3.4-5.6,14.2-6.3
		c-3.9,2-7.8,5.5-6.6,10.9c0,0,2.2-7,14.2-10.2c-0.5,0.5-1.1,1.1-1.5,1.7c-2.4,3-3.5,6.8-1.5,10.4c0,0,0.1-7.5,11.3-14l4-4.3
		c-0.1,0.1-2.3-2.1-1.5-6.1c3.2,3.2,6.6,6.3,10.1,9.1c1.9,1.5,4,3.1,5.2,5.2c2.4,4.1,3.7,9.3,5.6,13.7c2.4,5.4,5.1,10.8,8.3,15.7
		c0.6,1.2,1.4,2.3,2.3,3.3c0,0-0.4-3.5,0.7-5.5c0.1,5.8,1.7,10.8,5.6,14.2l0.7-7.3c0.6,7.9,3.1,14.9,8.8,18.3l-0.6-9.8
		c1.6,8.6,4.4,16.2,9.4,19.5c2.9-4.7,2.6-11.8,0.9-19.4l4.2,10.3c4-5.9,2.9-13.7-0.3-21.6l6.8,9.8c3.1-7.7-1.2-16.6-7.5-24.5
		C219.9,481.6,224.3,484.4,227.3,488.8z"/>
	<path d="M154.9,438.4h22v-45.2l32.5,45.2h4.8h9.1v-97.7h-21.9v46.6c-2.1-5-12.1-16.7-18.5-21.6c2,1.6,10,5,12.8,7.3
		c0.1-0.3,0.2-0.6,0.2-1c0-6.9-27-31.2-27-31.2H155v97.6H154.9z"/>
	<path d="M139.4,438.6h8v-23.1h-34.2v-14.1h34.2v-23.3h-34.2v-13.9h34.2v-23.3h-81l-16.5,41.8l-16.4-41.8H7.3l39,99h7.3l35.6-90.4
		c0.2,3.8,0.4,8.9,0.7,15.5c0.7,17,8.4,50.4,25.4,73.7h24.1V438.6z"/>
	<path d="M135.9,449.3l4-4.3c0,0-0.2-0.1-0.5-0.4h-13.9c-1.1,0.9-2.4,1.7-3.7,2.4c0,0-15.8-0.5-16,9.8c0,0,3.4-5.6,14.3-6.3
		c-3.9,2-7.9,5.5-6.6,10.9c0,0,2.2-7,14.2-10.2c-0.5,0.5-1.1,1.1-1.5,1.7c-2.4,3-3.5,6.8-1.6,10.4
		C124.6,463.3,124.8,455.8,135.9,449.3z"/>
	<path d="M-21.9,339.7c-16.8,0-30.5,13.5-30.5,31.8v67.2H-28v-25.6h12.3v25.6H8.6v-67.1C8.6,353.2-5,339.7-21.9,339.7z M-15.7,389.8
		H-28v-18.3c0-4.8,2.9-7.3,6.1-7.3c3.4,0,6.2,2.5,6.2,7.3C-15.7,371.5-15.7,389.8-15.7,389.8z"/>
	<path d="M-64.7,377.5c0-20.1-16.4-36.7-36.6-36.7c-0.3,0-25.7,0-25.7,0v97.9h24.5v-24.5c0,0,0.9,0,1.2,0c1.3,0,2.5,0,3.7-0.2
		l11.8,24.7h27.2l-17.1-34.9C-68.8,397-64.7,387.6-64.7,377.5z M-102.5,391v-26.8c7.3,0,13.5,6,13.5,13.3
		C-89,384.9-95.2,391-102.5,391z"/>
	<path d="M147.9,291.8c0,0,17.1-5.7,19.3-6.7c0,0,0.3,0.3,0.6,0.6c0.3,0.3,0.6,0.5,0.8,0.5c0.2,0,0-0.6-0.3-1.2
		c-1-2.8-2.9-4.2-4-4.9c-1.3-0.8-5.7-2.3-8-2.7c-0.1,0-1.5-0.4-20.9-0.6c0,0-3.2-3.7-6-5.7c-2.8-2-7.3-3.2-10-3.3
		c-6.8-0.5-11.8,1.7-13.2,2.5c-2.1,1.3-2.2,1.8-2.2,1.8c2.9-1.5,8.4-2,8.4-2s-10,2.9-17.9,14.6c0,0-0.5,0.8-0.6,0.9
		c-2.4,3.9-10.9,16.8-11.8,28c-0.4,4.9,0.2,6.5,0.5,8.3c0.2,1.3,0.8,1.3,0.8,1.3s1.1-10,4-12.1c0,0-2,8.9-1.4,15.6
		c0.4,4,1.1,6,2,7.4h80c-4.2-6.8-11.5-17.4-15.7-21.5c0,0-6.1-6.2-10.1-7.2c0,0-1.8-3.2-0.8-6.6
		C143.3,293.2,147.2,292.1,147.9,291.8z"/>
</g>
</svg>
