<?xml version="1.0" standalone="no"?>
<!DOCTYPE svg PUBLIC "-//W3C//DTD SVG 20010904//EN"
 "http://www.w3.org/TR/2001/REC-SVG-20010904/DTD/svg10.dtd">
<svg version="1.0" xmlns="http://www.w3.org/2000/svg"
 width="1024.000000pt" height="1024.000000pt" viewBox="0 0 1024.000000 1024.000000"
 preserveAspectRatio="xMidYMid meet">
<metadata>
Created by potrace 1.11, written by Peter Selinger 2001-2013
</metadata>
<g transform="translate(0.000000,1024.000000) scale(0.100000,-0.100000)"
fill="#000000" stroke="none">
<path d="M0 5120 l0 -5120 561 0 c531 0 561 1 554 18 -176 406 -217 932 -129
1657 19 161 66 457 94 589 11 55 18 101 15 104 -14 14 -104 -105 -153 -203
-98 -198 -203 -599 -252 -972 -7 -51 -16 -93 -20 -93 -16 0 -51 49 -65 91 -20
61 -63 295 -75 409 -21 207 -7 518 36 780 107 648 437 1433 977 2328 412 680
514 819 852 1158 374 377 783 660 1202 834 65 27 114 50 108 50 -24 0 -329
-51 -415 -70 -134 -30 -283 -74 -370 -110 l-75 -31 45 46 c298 304 1111 490
1740 399 355 -51 741 -199 970 -372 140 -106 339 -290 480 -445 l115 -126 310
-1 c604 -1 1579 -28 1828 -51 178 -16 537 -118 790 -224 181 -77 353 -220 456
-380 46 -72 118 -237 135 -307 10 -42 -22 -36 -84 15 -29 23 -58 46 -64 51 -7
5 -79 -17 -186 -57 -218 -81 -772 -273 -1419 -491 -272 -92 -532 -185 -578
-208 -240 -119 -434 -360 -537 -668 -62 -187 -59 -374 9 -580 40 -120 62 -150
120 -170 319 -109 913 -592 1301 -1060 347 -419 878 -1166 1284 -1807 l65
-103 307 0 308 0 0 5120 0 5120 -5120 0 -5120 0 0 -5120z"/>
</g>
</svg>
