<svg id="Layer_1" data-name="Layer 1" xmlns="http://www.w3.org/2000/svg" viewBox="0 0 50 50"><defs><style>.cls-1{fill:#676767;}</style></defs><title>QuestionMarkIcon</title><path class="cls-1" d="M8.83,8.67A22.22,22.22,0,0,1,25.13,1.9a22.23,22.23,0,0,1,16.3,6.77A22.23,22.23,0,0,1,48.2,25a22.23,22.23,0,0,1-6.77,16.3A22.22,22.22,0,0,1,25.13,48a22.22,22.22,0,0,1-16.3-6.77A22.22,22.22,0,0,1,2.06,25,22.22,22.22,0,0,1,8.83,8.67ZM12.08,38a17.81,17.81,0,0,0,13.05,5.47A17.82,17.82,0,0,0,38.18,38,17.82,17.82,0,0,0,43.65,25a17.82,17.82,0,0,0-5.47-13.05A17.82,17.82,0,0,0,25.13,6.45a17.82,17.82,0,0,0-13.05,5.47A17.82,17.82,0,0,0,6.61,25,17.82,17.82,0,0,0,12.08,38Zm6.55-24.21a9.15,9.15,0,0,1,13,0,8.87,8.87,0,0,1,2.71,6.5q0,2.92-3.47,6T27.41,31.9H22.86a8.11,8.11,0,0,1,1.08-4.28A7.64,7.64,0,0,1,26.32,25a11.29,11.29,0,0,0,2.38-2,3.92,3.92,0,0,0,1.08-2.71,4.3,4.3,0,0,0-1.41-3.2,4.58,4.58,0,0,0-6.5,0,4.29,4.29,0,0,0-1.41,3.2H15.93A8.86,8.86,0,0,1,18.63,13.81Zm4.22,25V34.17h4.55v4.66H22.86Z"/></svg>