<svg id="Layer_1" data-name="Layer 1" xmlns="http://www.w3.org/2000/svg" viewBox="0 0 50 50"><defs><style>.cls-1{fill:#010101;}</style></defs><title>ShareIcon</title><path class="cls-1" d="M37.94,34.43a6.29,6.29,0,0,1,4.69,2,6.63,6.63,0,0,1-.05,9.38,6.44,6.44,0,0,1-9.27,0,6.46,6.46,0,0,1-2-4.74,7.07,7.07,0,0,1,.11-1.49l-16.1-9.38A6.82,6.82,0,0,1,10.65,32a6.55,6.55,0,0,1-4.8-2,6.69,6.69,0,0,1,0-9.59,6.56,6.56,0,0,1,4.8-2,6.82,6.82,0,0,1,4.69,1.81l16-9.27a8.81,8.81,0,0,1-.21-1.6,6.56,6.56,0,0,1,2-4.8,6.69,6.69,0,0,1,9.59,0,6.56,6.56,0,0,1,2,4.8,6.56,6.56,0,0,1-2,4.8,6.56,6.56,0,0,1-4.8,2,6.86,6.86,0,0,1-4.69-1.92l-16,9.38a9,9,0,0,1,.21,1.6,9,9,0,0,1-.21,1.6l16.2,9.38A6.54,6.54,0,0,1,37.94,34.43Z"/></svg>