<?xml version="1.0" encoding="utf-8"?>
<!-- Generator: Adobe Illustrator 19.0.0, SVG Export Plug-In . SVG Version: 6.00 Build 0)  -->
<svg version="1.1" id="Layer_1" xmlns="http://www.w3.org/2000/svg" xmlns:xlink="http://www.w3.org/1999/xlink" x="0px" y="0px"
	 viewBox="-280 372 50 50" style="enable-background:new -280 372 50 50;" xml:space="preserve">
<style type="text/css">
	.st0{fill:#B6B6B6;}
</style>
<g>
	<path class="st0" d="M-239.3,378.7c1.2,0,2.2,0.5,3.1,1.4c0.9,0.9,1.4,2,1.4,3.1v31.3c0,1.2-0.5,2.2-1.4,3.1
		c-0.9,0.9-2,1.4-3.1,1.4h-31.3c-1.3,0-2.3-0.5-3.2-1.4c-0.9-0.9-1.3-2-1.3-3.1v-31.3c0-1.2,0.4-2.2,1.3-3.1
		c0.9-0.9,1.9-1.4,3.2-1.4h2.2v-4.5h4.5v4.5h17.8v-4.5h4.5v4.5L-239.3,378.7L-239.3,378.7z M-239.3,414.5V390h-31.3v24.6H-239.3z
		 M-243.7,394.4v4.5h-22.5v-4.5H-243.7z M-250.4,403.4v4.4h-15.7v-4.4H-250.4z"/>
</g>
</svg>
